<svg width="841" height="829" viewBox="0 0 841 829" fill="none" xmlns="http://www.w3.org/2000/svg">
<path d="M272.019 33.3798H568.04C700.056 33.3798 806.679 139.596 806.679 270.131V558.801C806.679 689.336 700.056 795.552 568.04 795.552H272.019C140.003 795.552 33.3798 689.336 33.3798 558.801V270.131C33.3798 139.596 140.003 33.3798 272.019 33.3798Z" fill="#8158FC" stroke="#692DB7" stroke-width="66.7596"/>
<path d="M531.195 257.518L531.154 257.535C531.153 257.535 531.153 257.535 531.152 257.536C508.586 267.071 489.939 279.652 476.407 298.02C462.869 316.396 455.05 339.75 452.706 369.795L452.704 369.827L452.678 370.153V370.479V370.514C452.678 481.295 527.093 575.801 624.663 575.801H624.68H624.834L624.989 575.796L633.322 575.487C644.575 575.069 655.754 573.48 666.679 570.744C673.858 568.947 680.784 566.254 687.294 562.73L694.912 558.605C706.743 552.2 717.803 544.459 727.876 535.534L731.515 532.31L731.706 532.14L731.886 531.96L746.306 517.518C794.157 516.351 831.714 474.651 831.714 424.547C831.714 373.727 793.075 331.551 744.246 331.551C736.132 331.551 728.269 332.728 720.805 334.929C708.744 321.093 695.382 308.446 680.899 297.164L680.151 296.581C668.316 285.437 644.192 272.021 617.462 263.141C590.479 254.177 558.59 249.072 532.043 257.212C532.042 257.212 532.042 257.212 532.041 257.212L531.999 257.225L531.589 257.351L531.195 257.518ZM669.538 311.752C681.504 321.073 692.653 331.391 702.867 342.592C675.269 358.364 656.779 389.303 656.779 424.547C656.779 467.704 684.618 504.598 722.923 514.768L719.023 518.674L715.616 521.693C706.6 529.682 696.7 536.611 686.111 542.344L678.493 546.468C673.344 549.256 667.866 551.385 662.189 552.807C652.51 555.23 642.606 556.639 632.636 557.008L624.494 557.31C540.49 557.2 471.327 474.708 471.167 370.875C473.352 343.473 480.369 323.814 491.291 308.988C502.188 294.198 517.561 283.414 537.904 274.757C558.951 268.471 586.199 272.24 611.634 280.689C637.234 289.194 658.744 301.675 667.72 310.274L667.753 310.305L668.061 310.601L668.398 310.864L669.538 311.752ZM228.16 263.141C201.43 272.021 177.305 285.437 165.47 296.581L164.722 297.164C150.24 308.446 136.877 321.093 124.816 334.929C117.353 332.728 109.49 331.551 101.375 331.551C52.5466 331.551 13.908 373.727 13.908 424.547C13.908 474.651 51.4645 516.351 99.3158 517.518L113.735 531.96L113.915 532.14L114.106 532.31L117.746 535.534L118.939 534.187L117.746 535.534C127.818 544.459 138.878 552.2 150.709 558.605L158.328 562.73C164.837 566.254 171.763 568.947 178.943 570.744C189.867 573.48 201.047 575.069 212.3 575.487L220.632 575.796L220.787 575.801H220.942H220.958C318.529 575.801 392.943 481.295 392.943 370.514V370.479V370.153L392.918 369.827L392.915 369.795C390.572 339.75 382.753 316.396 369.215 298.02C355.682 279.651 337.034 267.07 314.468 257.535L314.467 257.535L314.425 257.517L314.032 257.351L313.624 257.226L313.58 257.212L313.052 258.934L313.58 257.212C287.033 249.071 255.143 254.177 228.16 263.141ZM233.987 280.689C259.423 272.24 286.671 268.471 307.718 274.757C328.06 283.414 343.434 294.198 354.33 308.988C365.253 323.814 372.27 343.473 374.455 370.875C374.295 474.708 305.132 557.2 221.127 557.31L212.985 557.008C203.016 556.639 193.111 555.23 183.433 552.807C177.755 551.385 172.278 549.256 167.129 546.468L159.511 542.344C148.921 536.611 139.022 529.682 130.006 521.694L126.598 518.674L122.698 514.768C161.003 504.598 188.843 467.704 188.843 424.547C188.843 389.303 170.353 358.364 142.754 342.592C152.969 331.391 164.118 321.073 176.083 311.752L177.223 310.864L177.56 310.602L177.868 310.307L177.901 310.275L177.901 310.274C186.877 301.675 208.388 289.194 233.987 280.689ZM813.225 424.547C813.225 466.345 781.714 499.052 744.246 499.052C706.778 499.052 675.267 466.345 675.267 424.547C675.267 382.749 706.778 350.042 744.246 350.042C781.714 350.042 813.225 382.749 813.225 424.547ZM101.375 499.052C63.9076 499.052 32.3961 466.345 32.3961 424.547C32.3961 382.749 63.9076 350.042 101.375 350.042C138.843 350.042 170.355 382.749 170.355 424.547C170.355 466.345 138.843 499.052 101.375 499.052Z" fill="#FFC15E" stroke="#FFC15E" stroke-width="16.6899"/>
</svg>
