<svg width="118" height="285" viewBox="0 0 118 285" fill="none" xmlns="http://www.w3.org/2000/svg">
<rect x="97" y="3" width="18" height="282" rx="9" fill="url(#paint0_linear_111_43)"/>
<path d="M96.5114 278.269C95.5061 278.242 94.4189 278.116 93.2336 277.978L93.2129 277.976L15.2129 268.923C7.39634 268.015 1.5 261.395 1.5 253.526V25.5107C1.5 17.5632 7.51095 10.9035 15.4168 10.0917L93.4168 2.08281C94.0316 2.01968 94.6402 1.99324 95.2408 2.00146L95.3279 2.00265L95.4145 1.99375L99.4168 1.58281C105.93 0.914066 111.836 4.36419 114.693 9.7274C112.681 5.95066 109.157 3.12376 104.976 2.0146L103.744 4.70213C107.807 7.48406 110.5 12.1508 110.5 17.5017V262.579C110.5 267.107 109.31 270.347 106.461 273.085L108.121 275.532C109.304 274.994 110.372 274.338 111.319 273.578C108.961 275.892 105.971 277.477 102.725 277.912L104.171 276.104L101.829 274.23L100.217 276.245L96.3344 276.676L96.5114 278.269Z" fill="url(#paint1_linear_111_43)" stroke="black" stroke-width="3"/>
<path d="M95 2H98L99 3" stroke="black" stroke-width="3"/>
<path d="M95 2L96.1 2.2C99.0185 2.73064 101.847 3.6734 104.5 5V5" stroke="black" stroke-width="3"/>
<path d="M106.5 273L104 275L99 277.5" stroke="black" stroke-width="3"/>
<mask id="path-6-outside-1_111_43" maskUnits="userSpaceOnUse" x="0" y="9.65168" width="36.8981" height="93.344" fill="black">
<rect fill="white" y="9.65168" width="36.8981" height="93.344"/>
<path d="M0.135458 23.9994C0.0606467 16.2677 6.26772 9.93935 13.9993 9.86454L31.0067 9.69998L31.7257 84.002C31.8005 91.7336 25.5934 98.062 17.8618 98.1368L0.854405 98.3014L0.135458 23.9994Z"/>
</mask>
<path d="M0 10L31.0067 9.69998L0 10ZM35.7255 83.9633C35.8217 93.9039 27.8411 102.04 17.9005 102.137L0.893108 102.301L0.815703 94.3015L17.8231 94.137C23.3457 94.0835 27.7793 89.5633 27.7259 84.0407L35.7255 83.9633ZM0.854405 98.3014L0 10L0.854405 98.3014ZM35.0065 9.66128L35.7255 83.9633C35.8217 93.9039 27.8411 102.04 17.9005 102.137L17.8231 94.137C23.3457 94.0835 27.7793 89.5633 27.7259 84.0407L27.0069 9.73868L35.0065 9.66128Z" fill="black" mask="url(#path-6-outside-1_111_43)"/>
<ellipse cx="41.5" cy="27" rx="3.5" ry="4" fill="#EAEDFD"/>
<ellipse cx="16" cy="28.5" rx="9" ry="11.5" fill="black"/>
<ellipse cx="16.5" cy="28.5" rx="4.5" ry="5.5" fill="url(#paint2_linear_111_43)"/>
<ellipse cx="15.5" cy="27" rx="1.5" ry="2" fill="url(#paint3_linear_111_43)" fill-opacity="0.6"/>
<ellipse cx="16" cy="54.5" rx="9" ry="11.5" fill="black"/>
<ellipse cx="16.5" cy="54.5" rx="4.5" ry="5.5" fill="url(#paint4_linear_111_43)"/>
<ellipse cx="15.5" cy="53" rx="1.5" ry="2" fill="url(#paint5_linear_111_43)" fill-opacity="0.6"/>
<ellipse cx="16" cy="80.5" rx="9" ry="11.5" fill="black"/>
<ellipse cx="16.5" cy="80.5" rx="4.5" ry="5.5" fill="url(#paint6_linear_111_43)"/>
<ellipse cx="15.5" cy="79" rx="1.5" ry="2" fill="url(#paint7_linear_111_43)" fill-opacity="0.6"/>
<defs>
<linearGradient id="paint0_linear_111_43" x1="106" y1="3" x2="80" y2="285" gradientUnits="userSpaceOnUse">
<stop stop-color="#62998B"/>
<stop offset="1" stop-color="#62998B" stop-opacity="0"/>
</linearGradient>
<linearGradient id="paint1_linear_111_43" x1="109" y1="-1.11248e-06" x2="2.2551e-06" y2="268" gradientUnits="userSpaceOnUse">
<stop stop-color="#1F3C34"/>
<stop offset="1" stop-color="#69807A"/>
</linearGradient>
<linearGradient id="paint2_linear_111_43" x1="23" y1="33" x2="11" y2="25" gradientUnits="userSpaceOnUse">
<stop stop-color="#5A15B5"/>
<stop offset="1" stop-color="#5A15B5" stop-opacity="0"/>
</linearGradient>
<linearGradient id="paint3_linear_111_43" x1="17.6667" y1="28.6364" x2="13.4599" y2="26.0656" gradientUnits="userSpaceOnUse">
<stop stop-color="#FEFDFF"/>
<stop offset="1" stop-color="#155EB5" stop-opacity="0"/>
</linearGradient>
<linearGradient id="paint4_linear_111_43" x1="23" y1="59" x2="11" y2="51" gradientUnits="userSpaceOnUse">
<stop stop-color="#5A15B5"/>
<stop offset="1" stop-color="#5A15B5" stop-opacity="0"/>
</linearGradient>
<linearGradient id="paint5_linear_111_43" x1="17.6667" y1="54.6364" x2="13.4599" y2="52.0656" gradientUnits="userSpaceOnUse">
<stop stop-color="#FEFDFF"/>
<stop offset="1" stop-color="#155EB5" stop-opacity="0"/>
</linearGradient>
<linearGradient id="paint6_linear_111_43" x1="23" y1="85" x2="11" y2="77" gradientUnits="userSpaceOnUse">
<stop stop-color="#5A15B5"/>
<stop offset="1" stop-color="#5A15B5" stop-opacity="0"/>
</linearGradient>
<linearGradient id="paint7_linear_111_43" x1="17.6667" y1="80.6364" x2="13.4599" y2="78.0656" gradientUnits="userSpaceOnUse">
<stop stop-color="#FEFDFF"/>
<stop offset="1" stop-color="#155EB5" stop-opacity="0"/>
</linearGradient>
</defs>
</svg>
