<svg width="356" height="344" viewBox="0 0 356 344" fill="none" xmlns="http://www.w3.org/2000/svg">
<path d="M189.5 84.8962C204.346 79.727 215 65.6077 215 49C215 28.0132 197.987 11 177 11C156.013 11 139 28.0132 139 49C139 66.7065 151.111 81.5844 167.5 85.8028V131H189.5V84.8962ZM132.336 159.568L87.7723 144.631L86.688 147.866C88.0395 137.364 85.0196 126.356 77.4484 117.807C63.5344 102.095 39.5183 100.638 23.8069 114.552C8.09546 128.466 6.63832 152.482 20.5523 168.193C34.4662 183.905 58.4823 185.362 74.1937 171.448C77.3837 168.623 79.986 165.382 81.9915 161.878L80.7806 165.49L125.344 180.427L132.336 159.568ZM123.288 241.422L111.172 258.42C98.4892 253.793 83.7369 256.087 72.9205 265.666C57.2091 279.58 55.752 303.596 69.6659 319.307C83.5798 335.018 107.596 336.476 123.307 322.562C138.136 309.43 140.267 287.299 128.762 271.644L141.202 254.191L123.288 241.422ZM263.765 144.622L243.906 150.444L250.095 171.556L269.954 165.733L263.765 144.622ZM214.308 253.741L227.319 270.518C216.074 284.684 216.259 305.297 228.666 319.307C242.58 335.018 266.596 336.476 282.307 322.562C298.019 308.648 299.476 284.632 285.562 268.92C275.235 257.259 259.343 253.45 245.412 257.95L231.693 240.259L214.308 253.741ZM210.062 221.256C230.309 203.326 232.186 172.378 214.256 152.131C196.326 131.885 165.378 130.007 145.132 147.937C124.885 165.867 123.008 196.816 140.938 217.062C158.868 237.308 189.816 239.186 210.062 221.256ZM331.307 171.562C347.019 157.648 348.476 133.632 334.562 117.92C320.648 102.209 296.632 100.752 280.921 114.666C265.209 128.58 263.752 152.596 277.666 168.307C291.58 184.018 315.596 185.476 331.307 171.562Z" stroke="url(#paint0_linear_19_82)" stroke-width="22"/>
<defs>
<linearGradient id="paint0_linear_19_82" x1="302.5" y1="22" x2="36" y2="357.5" gradientUnits="userSpaceOnUse">
<stop stop-color="#07B7CE"/>
<stop offset="1" stop-color="#2772E1"/>
</linearGradient>
</defs>
</svg>
