<svg width="295" height="199" viewBox="0 0 295 199" fill="none" xmlns="http://www.w3.org/2000/svg">
<rect x="4" y="15" width="287" height="180" rx="8" fill="#D9D9D9" stroke="#949494" stroke-width="7"/>
<rect x="42" y="10" width="10" height="4" rx="2" fill="#949494"/>
<rect x="61" y="10" width="20" height="4" rx="2" fill="#949494"/>
<path d="M158 4.5C158 2.567 159.567 1 161.5 1H277.5C279.433 1 281 2.567 281 4.5V4.5C281 6.433 279.433 8 277.5 8H161.5C159.567 8 158 6.433 158 4.5V4.5Z" fill="#949494"/>
<path d="M156.104 6.43003C154.136 5.89548 154.136 3.10452 156.104 2.56997L159.226 1.72176C160.497 1.3762 161.75 2.33384 161.75 3.65179V5.34821C161.75 6.66616 160.497 7.62379 159.226 7.27824L156.104 6.43003Z" fill="#949494"/>
<path d="M153.664 4.98038C153.182 4.84131 153.182 4.15869 153.664 4.01962L154.361 3.81834C154.681 3.72605 155 3.96597 155 4.29873V4.70127C155 5.03403 154.681 5.27395 154.361 5.18166L153.664 4.98038Z" fill="#949494"/>
</svg>
