<svg width="295" height="198" viewBox="0 0 295 198" fill="none" xmlns="http://www.w3.org/2000/svg">
<rect x="4" y="14.5" width="287" height="180" rx="8" fill="url(#paint0_linear_3_58)" stroke="#424242" stroke-width="7"/>
<rect x="42" y="9.5" width="10" height="4" rx="2" fill="#424242"/>
<rect x="61" y="9.5" width="20" height="4" rx="2" fill="#424242"/>
<path d="M158 4C158 2.067 159.567 0.5 161.5 0.5H277.5C279.433 0.5 281 2.067 281 4V4C281 5.933 279.433 7.5 277.5 7.5H161.5C159.567 7.5 158 5.933 158 4V4Z" fill="#424242"/>
<path d="M156.104 5.93003C154.136 5.39548 154.136 2.60452 156.104 2.06997L159.226 1.22176C160.497 0.876205 161.75 1.83384 161.75 3.15179V4.84821C161.75 6.16616 160.497 7.12379 159.226 6.77824L156.104 5.93003Z" fill="#424242"/>
<path d="M153.664 4.48038C153.182 4.34131 153.182 3.65869 153.664 3.51962L154.361 3.31834C154.681 3.22605 155 3.46597 155 3.79873V4.20127C155 4.53403 154.681 4.77395 154.361 4.68166L153.664 4.48038Z" fill="#424242"/>
<defs>
<linearGradient id="paint0_linear_3_58" x1="147.5" y1="14.5" x2="147.5" y2="194.5" gradientUnits="userSpaceOnUse">
<stop stop-color="#8861ED"/>
<stop offset="1" stop-color="#7BABE9"/>
</linearGradient>
</defs>
</svg>
