<svg width="77" height="31" viewBox="0 0 77 31" fill="none" xmlns="http://www.w3.org/2000/svg">
<path d="M3.83923 2.75085H0V0.196489H10.3758V2.75085H6.51685V14.5402H3.83923V2.75085Z" fill="white"/>
<path d="M16.3804 14.776C15.4748 14.776 14.6478 14.6254 13.8997 14.3241C13.1515 14.0097 12.5084 13.584 11.9702 13.0469C11.4452 12.5098 11.0317 11.8811 10.7299 11.1606C10.4411 10.427 10.2967 9.64763 10.2967 8.82238C10.2967 7.98402 10.4477 7.19807 10.7495 6.4645C11.0646 5.73094 11.4911 5.09563 12.0293 4.55856C12.5674 4.02148 13.1975 3.59576 13.9194 3.28137C14.6544 2.96699 15.4419 2.8098 16.282 2.8098C17.1351 2.8098 17.9227 2.96044 18.6446 3.26173C19.3796 3.54991 20.0096 3.96254 20.5347 4.49961C21.0597 5.02358 21.4666 5.6458 21.7553 6.36626C22.0572 7.08672 22.2082 7.87268 22.2082 8.72413V9.72623H12.8365C13.0203 10.5384 13.4206 11.1934 14.0375 11.6911C14.6544 12.1889 15.4354 12.4378 16.3804 12.4378C17.1286 12.4378 17.7783 12.2544 18.3296 11.8876C18.8808 11.5208 19.2943 11.0296 19.5699 10.4139L21.7553 11.6715C21.2566 12.6015 20.5544 13.3547 19.6487 13.9311C18.7561 14.4944 17.6667 14.776 16.3804 14.776ZM16.282 5.14802C15.4813 5.14802 14.7857 5.36416 14.195 5.79644C13.6175 6.22872 13.2106 6.79854 12.9743 7.5059H19.5109C19.314 6.73304 18.9333 6.15012 18.3689 5.75714C17.8045 5.35106 17.1089 5.14802 16.282 5.14802Z" fill="white"/>
<path d="M30.3884 14.776C29.5484 14.776 28.7608 14.6188 28.0258 14.3044C27.3039 13.9901 26.6738 13.5643 26.1357 13.0273C25.5976 12.4902 25.171 11.8614 24.856 11.141C24.5541 10.4074 24.4031 9.62799 24.4031 8.80273C24.4031 7.96437 24.5541 7.18497 24.856 6.4645C25.171 5.73094 25.5976 5.09563 26.1357 4.55856C26.6738 4.00839 27.3039 3.58266 28.0258 3.28137C28.7608 2.96699 29.5484 2.8098 30.3884 2.8098C31.0315 2.8098 31.6353 2.90149 32.1997 3.08489C32.7772 3.25518 33.3023 3.49751 33.7748 3.8119C34.2473 4.12628 34.6608 4.49961 35.0152 4.93189C35.3695 5.36416 35.6583 5.84229 35.8814 6.36626L33.4991 7.36836C33.2366 6.73959 32.8297 6.24182 32.2785 5.87504C31.7403 5.49516 31.1169 5.30522 30.4081 5.30522C29.9224 5.30522 29.4696 5.39691 29.0496 5.5803C28.6427 5.76369 28.2817 6.01258 27.9667 6.32696C27.6648 6.64135 27.4286 7.01467 27.2579 7.44695C27.0873 7.86613 27.002 8.31806 27.002 8.80273C27.002 9.2743 27.0873 9.72623 27.2579 10.1585C27.4286 10.5777 27.6648 10.9445 27.9667 11.2588C28.2817 11.5732 28.6427 11.8221 29.0496 12.0055C29.4696 12.1889 29.929 12.2806 30.4278 12.2806C31.1759 12.2806 31.8125 12.0841 32.3375 11.6911C32.8757 11.285 33.276 10.7676 33.5385 10.1389L35.9208 11.1606C35.6977 11.6977 35.4089 12.1889 35.0545 12.6343C34.7001 13.0666 34.2867 13.4464 33.8142 13.7739C33.3548 14.0883 32.8363 14.3372 32.2588 14.5206C31.6813 14.6909 31.0578 14.776 30.3884 14.776Z" fill="white"/>
<path d="M38.3068 0H40.9647V4.42101C41.3585 3.92324 41.8442 3.53026 42.4217 3.24208C43.0123 2.95389 43.6752 2.8098 44.4102 2.8098C45.8409 2.8098 46.9566 3.24208 47.7572 4.10663C48.571 4.97118 48.9779 6.17632 48.9779 7.72204V14.5402H46.2609V8.01677C46.2609 7.11292 46.0443 6.40556 45.6112 5.89468C45.178 5.37071 44.5283 5.10873 43.662 5.10873C43.2814 5.10873 42.927 5.18077 42.5989 5.32487C42.2839 5.45586 42.0017 5.6589 41.7523 5.93398C41.516 6.19597 41.3257 6.52345 41.1813 6.91643C41.0501 7.29631 40.9844 7.73514 40.9844 8.23291V14.5402H38.3068V0Z" fill="white"/>
<path d="M51.8749 3.04559H54.5131V4.46031C54.8937 3.96254 55.3728 3.56301 55.9504 3.26173C56.541 2.96044 57.2104 2.8098 57.9586 2.8098C59.3893 2.8098 60.5049 3.24208 61.3056 4.10663C62.1194 4.97118 62.5263 6.17632 62.5263 7.72204V14.5402H59.829V7.99712C59.829 7.10637 59.6124 6.40556 59.1793 5.89468C58.7461 5.37071 58.0964 5.10873 57.2301 5.10873C56.4688 5.10873 55.8257 5.37726 55.3006 5.91433C54.7887 6.45141 54.5328 7.22426 54.5328 8.23291V14.5402H51.8749V3.04559Z" fill="white"/>
<path d="M71.0344 14.776C70.2075 14.776 69.4265 14.6254 68.6915 14.3241C67.9696 14.0097 67.3396 13.584 66.8014 13.0469C66.2633 12.4967 65.8367 11.8614 65.5217 11.141C65.2198 10.4074 65.0688 9.62799 65.0688 8.80273C65.0688 7.96437 65.2198 7.18497 65.5217 6.4645C65.8367 5.73094 66.2633 5.09563 66.8014 4.55856C67.3396 4.02148 67.9696 3.59576 68.6915 3.28137C69.4265 2.96699 70.2075 2.8098 71.0344 2.8098C71.8613 2.8098 72.6357 2.96699 73.3577 3.28137C74.0796 3.59576 74.7096 4.02148 75.2477 4.55856C75.799 5.09563 76.2256 5.73094 76.5275 6.4645C76.8425 7.18497 77 7.96437 77 8.80273C77 9.62799 76.8425 10.4074 76.5275 11.141C76.2256 11.8614 75.799 12.4967 75.2477 13.0469C74.7096 13.584 74.0796 14.0097 73.3577 14.3241C72.6357 14.6254 71.8613 14.776 71.0344 14.776ZM71.0344 12.2806C71.5069 12.2806 71.9466 12.1889 72.3535 12.0055C72.7604 11.8221 73.1148 11.5732 73.4167 11.2588C73.7186 10.9445 73.9549 10.5777 74.1255 10.1585C74.2961 9.72623 74.3814 9.2743 74.3814 8.80273C74.3814 8.31806 74.2961 7.86613 74.1255 7.44695C73.9549 7.01467 73.7186 6.64135 73.4167 6.32696C73.1148 6.01258 72.7604 5.76369 72.3535 5.5803C71.9466 5.39691 71.5069 5.30522 71.0344 5.30522C70.5619 5.30522 70.1156 5.39691 69.6956 5.5803C69.2887 5.76369 68.9343 6.01258 68.6324 6.32696C68.3437 6.64135 68.114 7.01467 67.9433 7.44695C67.7727 7.86613 67.6874 8.31806 67.6874 8.80273C67.6874 9.2743 67.7727 9.72623 67.9433 10.1585C68.114 10.5777 68.3437 10.9445 68.6324 11.2588C68.9343 11.5732 69.2887 11.8221 69.6956 12.0055C70.1156 12.1889 70.5619 12.2806 71.0344 12.2806Z" fill="white"/>
<path d="M73.0016 31H64.8703V28.4456H70.324V25.1446H64.8703V22.5902H70.324V16.6563H73.0016V31Z" fill="white"/>
<path d="M51.7317 16.6563H54.3699V17.9727C54.7374 17.4881 55.1968 17.1082 55.7481 16.8331C56.2994 16.558 56.9425 16.4205 57.6776 16.4205C58.3601 16.4205 58.977 16.5318 59.5283 16.7545C60.0664 16.9772 60.5324 17.2981 60.9261 17.7173C61.3068 18.1496 61.6021 18.667 61.8121 19.2696C62.009 19.8721 62.1074 20.5599 62.1074 21.3327V28.1509H59.4101V21.6078C59.4101 20.717 59.2132 20.0097 58.8195 19.4857C58.4126 18.9748 57.7891 18.7194 56.9491 18.7194C56.2141 18.7194 55.6037 18.9879 55.1181 19.525C54.6324 20.0621 54.3896 20.8349 54.3896 21.8436V28.1509H51.7317V16.6563Z" fill="white"/>
<path d="M48.7124 28.1509H46.0742V26.7362C45.6935 27.2339 45.2145 27.6335 44.6369 27.9348C44.0463 28.236 43.3769 28.3867 42.6287 28.3867C41.198 28.3867 40.0824 27.9544 39.2817 27.0899C38.4679 26.2253 38.061 25.0202 38.061 23.4744V16.6563H40.7583V23.1994C40.7583 24.0901 40.9749 24.7909 41.408 25.3018C41.8412 25.8258 42.4909 26.0878 43.3572 26.0878C44.1185 26.0878 44.7616 25.8192 45.2866 25.2822C45.7985 24.7451 46.0545 23.9722 46.0545 22.9636V16.6563H48.7124V28.1509Z" fill="white"/>
</svg>
