<svg width="42" height="53" viewBox="0 0 42 53" fill="none" xmlns="http://www.w3.org/2000/svg">
<path d="M36.7697 11.3348C36.4426 11.1499 36.1242 10.9473 35.8157 10.7275C34.9185 10.0788 34.0959 9.31445 33.3656 8.45087C31.5384 6.16426 30.856 3.84452 30.6046 2.22037H30.6147C30.4047 0.872248 30.4915 0 30.5046 0H22.1822V35.1969C22.1822 35.6694 22.1822 36.1365 22.164 36.598C22.164 36.6554 22.159 36.7084 22.156 36.7702C22.156 36.7956 22.156 36.8221 22.1509 36.8486C22.1509 36.8552 22.1509 36.8619 22.1509 36.8685C22.0632 38.1314 21.693 39.3513 21.0731 40.421C20.4531 41.4907 19.6022 42.3773 18.5954 43.0029C17.546 43.6559 16.3592 43.9984 15.1519 43.9966C11.2744 43.9966 8.13176 40.5386 8.13176 36.2679C8.13176 31.9972 11.2744 28.5391 15.1519 28.5391C15.8859 28.5383 16.6154 28.6647 17.3133 28.9134L17.3234 19.6455C15.2048 19.3461 13.0525 19.5303 11.0022 20.1863C8.95191 20.8423 7.04819 21.9559 5.41112 23.4569C3.97666 24.82 2.77071 26.4465 1.84753 28.2631C1.49622 28.9255 0.170721 31.5875 0.0102081 35.9079C-0.0907435 38.3601 0.582603 40.9007 0.903629 41.9507V41.9728C1.10553 42.5911 1.88791 44.7011 3.16293 46.4798C4.19105 47.9066 5.40575 49.16 6.76791 50.1995V50.1775L6.78809 50.1995C10.8171 53.1939 15.2842 52.9974 15.2842 52.9974C16.0575 52.9631 18.6479 52.9974 21.5896 51.4726C24.8524 49.7822 26.7099 47.2637 26.7099 47.2637C27.8965 45.7589 28.8401 44.044 29.5002 42.1925C30.2533 40.0274 30.5046 37.4305 30.5046 36.3926V17.7199C30.6056 17.7861 31.9503 18.7589 31.9503 18.7589C31.9503 18.7589 33.8875 20.1169 36.91 21.0013C39.0785 21.6307 42 21.7631 42 21.7631V12.7271C40.9763 12.8485 38.8978 12.4952 36.7697 11.3348Z" fill="white"/>
</svg>
