<svg width="48" height="48" viewBox="0 0 48 48" fill="none" xmlns="http://www.w3.org/2000/svg">
<path fill-rule="evenodd" clip-rule="evenodd" d="M7.78558 0.5625H40.2144C44.2035 0.5625 47.4375 3.7964 47.4375 7.78558V40.2144C47.4375 44.2035 44.2035 47.4375 40.2144 47.4375H7.78558C3.7964 47.4375 0.5625 44.2035 0.5625 40.2144V7.78558C0.5625 3.7964 3.7964 0.5625 7.78558 0.5625Z" fill="white"/>
<path fill-rule="evenodd" clip-rule="evenodd" d="M23.6067 33.3764H25.5242C25.5242 33.3764 26.1032 33.3126 26.3993 32.9941C26.6714 32.7013 26.6627 32.1518 26.6627 32.1518C26.6627 32.1518 26.6252 29.579 27.8191 29.2001C28.9965 28.8266 30.5081 31.6866 32.1101 32.7864C33.3216 33.6184 34.2423 33.4363 34.2423 33.4363L38.5264 33.3764C38.5264 33.3764 40.7674 33.2382 39.7047 31.4762C39.6178 31.3323 39.0857 30.1728 36.5193 27.7906C33.8328 25.2973 34.1929 25.7007 37.4288 21.3879C39.3994 18.7614 40.1871 17.158 39.9409 16.4713C39.7064 15.817 38.2569 15.9899 38.2569 15.9899L33.4334 16.0197C33.4334 16.0197 33.0755 15.971 32.8105 16.1296C32.5512 16.2847 32.3848 16.6471 32.3848 16.6471C32.3848 16.6471 31.6211 18.6794 30.6033 20.4081C28.4554 24.0552 27.5965 24.2482 27.2454 24.0214C26.4285 23.4935 26.6327 21.9012 26.6327 20.7697C26.6327 17.235 27.1688 15.7613 25.5887 15.3799C25.0644 15.2533 24.6782 15.1696 23.3372 15.156C21.616 15.1385 20.1595 15.1613 19.3347 15.5653C18.7859 15.8341 18.3625 16.4328 18.6205 16.4672C18.9394 16.5097 19.6613 16.6621 20.044 17.1829C20.5384 17.8555 20.5211 19.3656 20.5211 19.3656C20.5211 19.3656 20.8052 23.5264 19.8578 24.0431C19.2077 24.3976 18.3158 23.6739 16.4008 20.365C15.4198 18.6701 14.6789 16.7964 14.6789 16.7964C14.6789 16.7964 14.5362 16.4463 14.2814 16.2589C13.9723 16.0319 13.5405 15.9599 13.5405 15.9599L8.95667 15.9899C8.95667 15.9899 8.26872 16.0091 8.01591 16.3083C7.791 16.5747 7.99795 17.1249 7.99795 17.1249C7.99795 17.1249 11.5863 25.5205 15.6498 29.7515C19.3761 33.6311 23.6067 33.3764 23.6067 33.3764Z" fill="#11191D"/>
</svg>
